<?xml version="1.0" encoding="UTF-8"?>
<svg viewBox="0 0 500 500" xmlns="http://www.w3.org/2000/svg" xmlns:v="https://svgstorm.com">
<g fill="None" fill-opacity="0" stroke="#212E2D" stroke-opacity="0" stroke-width=".3">
<path d="m0 500h500v-500h-500v500m289-337c-2.58 2.6-3.87 7.03-8 8 0.74 6.54 7.77 9.88 10.92 15.08 3.81 4.48-1.48 18.83-4.92 15.92-0.87 2.48-3.1 3.73-6 4-3.92 1.97-4.77 6.32-6 10 7.72 6.01 6.07 18.85-3.08 22.92-11.2 5.58 9.54 19.22 9.85 5.85 3.23-8.02 6.42-20.84 18.23-17.77h36c10.64 1.68 25.04-3.43 33.3 2.7-2.14 17.15-15.42 32.62-21.22 49.38-3.65 12.47-18.79 4.76-26.08 9.92 5.03 1.51 8.02 7.23 9 12 22.01-4.52 45.54 12.52 42 36-7.53 11.99 14.11 11.34 11 24 3.53 9.86-6.79 20.86-17 20-2.72 3.09-1.89 8.15-6 10-7.04 7.29-19.67 3.88-27-1-8.84 11.22-27.27 10.04-36-1-16.72-14.31-40.18 4.05-59 4-16.79 15.97-47.31 12.55-59-8-10.43 12.2-30.68 15.11-42 3-5.12-3.04-11.25-5.07-15-10-18.18-12.41-5.72-43.69 16-40-13.59-32.45 32.43-59.01 57-38 0.91-12.8 11.13-22.13 16-33-16.21-6.15-24.22 12.06-39.07 13.93-16.85 3.39-33.96-3.71-50.93 0.07 9.85-23.39 20.83-51.91 47.69-61.3 6.68-5.07 24.44-1.54 23.53-11.92-37.82-1.28-71.78-27.99-81.2-64.8-7.46-16.46-15.53-32.76-27.02-46.98 47.36 2.34 95.61 23.92 120 67 2.01-9.08 10.46-16.73 9-27 3.02-20.14 27.02-30.64 45.22-23.22 8.29 7.03 14.91 1.17 23.01-2.55 7.93-3.89 15.2-9.05 21.77-15.23-6.55 21.45 2.5 53.47-15 68z"/>
</g>
<g fill="None" fill-opacity="0" stroke="#212E2D" stroke-width=".3">
<path d="m123 378c4.24 0.7 12.79 3.09 15-1-11.36-1.17-19.53-17.67-10.25-26.25 9.21-9.07 23.19-0.14 29.25 8.25-7.57-19.89 26.75-17.93 31-2-7.88-20.07 10.7-49.03 34.22-40.22 10.27 2.29 18.33 10.96 21.1 20.9 8.64 23.23-40.16 24.47-26.07 48.07 10.79 4.24 18.48-8.11 27.45-12.05 15.89-11.8 33.05-21.59 49.38-32.62 7.37-3.23 18.57-19.27 23.22-5.38 8.28 22.22-15.47 42.98-36.3 43.3 25.74 7.63 56.39-22.35 43.23-48.23-8.56-7.96 1.83-12.8 5.77-19.77 12.76-3.36 28.63 1.73 32.92 15.08 4.72 13.64-4.74 25.75-13.92 34.92 8.17-1.49 19.83-13.89 25.77-1.77 4.76 10.1-6.38 18.79-14.77 20.77 2.61-0.67 4.45 1.34 7 1 10.21 0.86 20.53-10.14 17-20 3.11-12.66-18.53-12.01-11-24 3.54-23.48-19.99-40.52-42-36-0.98-4.77-3.97-10.49-9-12 7.29-5.16 22.43 2.55 26.08-9.92 5.8-16.76 19.08-32.23 21.22-49.38-8.26-6.13-22.66-1.02-33.3-2.7h-36c-11.81-3.07-15 9.75-18.23 17.77-0.31 13.37-21.05-0.27-9.85-5.85 9.15-4.07 10.8-16.91 3.08-22.92 1.23-3.68 2.08-8.03 6-10 6.37-7.48 3.72-16.63-3.3-22.7-5.95-8.05-3.56-19.24-1.7-28.3 2.69 7.92-1.5 18.83 5.25 25.75 7.65 4.91 9.52 13.44 5.75 21.25 3.44 2.91 8.73-11.44 4.92-15.92-3.15-5.2-10.18-8.54-10.92-15.08-0.88-12.89 8.78-26.17-0.25-37.75-13.87-9.27 7.63-15.73 14.25-21.25-2.77 16.8-2.14 34.46-6 51 17.5-14.53 8.45-46.55 15-68-6.57 6.18-13.84 11.34-21.77 15.23-8.1 3.72-14.72 9.58-23.01 2.55-18.2-7.42-42.2 3.08-45.22 23.22 1.46 10.27-6.99 17.92-9 27-24.39-43.08-72.64-64.66-120-67 11.49 14.22 19.56 30.52 27.02 46.98 9.42 36.81 43.38 63.52 81.2 64.8 0.91 10.38-16.85 6.85-23.53 11.92-26.86 9.39-37.84 37.91-47.69 61.3 16.97-3.78 34.08 3.32 50.93-0.07 14.85-1.87 22.86-20.08 39.07-13.93-4.87 10.87-15.09 20.2-16 33-24.57-21.01-70.59 5.55-57 38-21.72-3.69-34.18 27.59-16 40m82-190c-11.94 16.93-32.94 5.14-47.69-0.31-30.9-15.89-35.02-53.3-52.31-79.69 43.48 6.62 87.12 35.93 100 80m74-46c-2.51-0.8-5.19-1.28-8-1 5.18 6.5-1.21 13.39-6.25 17.75-5.42 4.18 1.77 17.44-10.75 16.25 9.61 2.12-6.09 3.19 0 7-13.8 4.04-26.13-14.62-22-27 5.1 6.28 13.82-1.94 20.08-3.92 5.39-4.42 12.84-8.03 14.92-15.08-8.59 5.9-16.63 12.99-27.07 14.93-13.44-3.62-23.42 5.06-23.93 18.07-2.57-9.15-0.28-25.78 12.67-25.33 9.7-2.12 19.37-6.37 26.33-13.67-8.95 2.47-16.79 8.15-26 10 3.65-4.73 10.28-6.43 14-11-6.96 1.79-13.22 5.59-20 8-3.38-20.57 27.33-29.5 40.08-15.08 3.53 8.54 14.45 11.65 15.92 20.08m-56 78c3.25-10.89 4.7-23.52-2.92-33.08-6.73-10.33-0.57-21.77 4.92-30.92 0.54 9.76-8.99 22.09-0.22 32.22 5.36 9.61 6.29 23.56-1.78 31.78m56-17c-4.29-11-17.87-21.58-10-35 2.44 5.65-1.06 14.27 5.25 18.75 3.85 4.85 9.4 9.91 4.75 16.25m-53-29c1.18 10.61 9.56 18.68 10.78 29.22 3.35 12.37-8 20.08-9.78 30.78 20.31-11.89 17.06-39.1 6-56 5.36 3.63 5.12 15.46 15.01 13.99 5.06 4.88 6.51 12.68 10.3 18.7 3 6.97 13 5.91 15.99 13.01 5.29 8.42-10.57 15.26-12.3 5.3-1.8 1.59-0.19 6 2 7-3.08 5.22-4.6 10.95-5 17-7.42-3.39-19.47-1.05-24-8 12.17-3.67 27.08-15.87 19-30-1.15 4.49 1.91 12.26-2 17-2.69-1.61-4.17 0.47-5 3-6.38-4.12-18.73 14.37-23.92 0.92-1.78-11.48 11.88-17.93 8.92-29.92 1.88-11.49-9.31-21.36-6-32m46 35c-1.33-8.08-8.67-14.63-10-23 4.96 6.51 14.96 13.86 10 23m-15-20c0.81 8.93 11.1 13.8 11 23-6.33-4.42-12.28-15.56-11-23m11 81c-2.74-2.8-5.18-6.29-9-8 1.6 4.88 6.14 8.69 7 14-9.69-4.6-16.07-11.19-28.67-11.33-11.66-3.03-28.21 0.74-36.25-8.75-1.73-13.99-0.91-28.57-1.08-42.92-3.86-10.88 8.4-30.27 17.92-16.92 5.87 12.31-3.25 24.98-1.92 37.92-7.12 16.25 13.46 15.92 23.67 19.33 10.54 2.12 25.55 3.65 28.33 16.67m-75-44c-1.48 14.56 6.66 33.02-10.23 40.77-13.54 9.43-30.2 4.23-45.77 4.23 6.79-24.33 28.79-47.36 56-45m169 7c-5.78 16.07-14.14 31.54-22.25 46.75-21.72 3.16-44.76 1.12-66.75 3.25 5.11-16.62 14.19-31.97 20.92-48.08 21.03-4.47 45.67-0.65 68.08-1.92m-87 23c0.43 3.74-2.03 6.62-3 10-3-4.57-8.39-8.83-8-15 4.22 0.32 6.87 4.51 11 5m-9 24c-9.14 4.59-22.31 0.72-33 2 1.4 10.08 15.93 3.55 22 7-7.82 1.78-15.25 5.01-23 7 19.81 2.13 41.04-2.01 61-4-10.95 14.36-22.68 29.09-41.02 32.98-8.16 1.58-11.69-12.84-20.21-14.75-9.24-5.21-20.76-5.18-30.77-2.23-0.84-13.81 6.42-28.96 19.08-34.92 15.85-3.72 31.97 0.33 45.92 6.92m49 11c12.09 1.91 14.28 18.29 3.75 24.75-24.27 20.73-51.71 36.51-77.83 54.17-4.95 5.2-26.06 18.95-19.67 3.33 23.03-19.76 52.17-36.81 66.52-65.48 6.4-8.77 15.6-17.77 27.23-16.77m-136 47c-9.28-5.14-19.5-1.87-28 3-12.61-15.52 2.03-39.06 21-38 7.32-1.47 23.42 3.52 19.24 12.25-7.17 5.88-10.2 14.3-12.24 22.75m90-13c-3.67 7-10.21 13.63-17 18 0.67-2.94-1.09-5.18-1-8 6.47-2.18 11.82-7.01 18-10z"/>
</g>
<g fill="None" fill-opacity="0" stroke="#BCF1F4" stroke-width=".3">
<path d="m205 188c-12.88-44.07-56.52-73.38-100-80 17.29 26.39 21.41 63.8 52.31 79.69 14.75 5.45 35.75 17.24 47.69 0.31m-41-41c-11.05-5.52-21.91-11.51-34-14 11.17-0.53 25.42 7.13 34 14z"/>
</g>
<g fill="None" fill-opacity="0" stroke="#BCF1F4" stroke-opacity=".98" stroke-width=".3">
<path d="m281 171c4.13-0.97 5.42-5.4 8-8 3.86-16.54 3.23-34.2 6-51-6.62 5.52-28.12 11.98-14.25 21.25 9.03 11.58-0.63 24.86 0.25 37.75z"/>
</g>
<g fill="None" fill-opacity="0" stroke="#BCF1F4" stroke-width=".3">
<path d="m279 142c-1.47-8.43-12.39-11.54-15.92-20.08-12.75-14.42-43.46-5.49-40.08 15.08 6.78-2.41 13.04-6.21 20-8-3.72 4.57-10.35 6.27-14 11 9.21-1.85 17.05-7.53 26-10-6.96 7.3-16.63 11.55-26.33 13.67-12.95-0.45-15.24 16.18-12.67 25.33 0.51-13.01 10.49-21.69 23.93-18.07 10.44-1.94 18.48-9.03 27.07-14.93-2.08 7.05-9.53 10.66-14.92 15.08-6.26 1.98-14.98 10.2-20.08 3.92-4.13 12.38 8.2 31.04 22 27-6.09-3.81 9.61-4.88 0-7 12.52 1.19 5.33-12.07 10.75-16.25 5.04-4.36 11.43-11.25 6.25-17.75 2.81-0.28 5.49 0.2 8 1m-23 18c-1.57 4.71-9.54 0.8-11-3 3.46 1.62 6.52 4.18 11 3z"/>
</g>
<g fill="None" fill-opacity="0" stroke="#212E2D" stroke-width=".3">
<path d="m164 147c-8.58-6.87-22.83-14.53-34-14 12.09 2.49 22.95 8.48 34 14z"/>
</g>
<g fill="None" fill-opacity="0" stroke="#BCF1F4" stroke-opacity=".98" stroke-width=".3">
<path d="m281 206c2.9-0.27 5.13-1.52 6-4 3.77-7.81 1.9-16.34-5.75-21.25-6.75-6.92-2.56-17.83-5.25-25.75-1.86 9.06-4.25 20.25 1.7 28.3 7.02 6.07 9.67 15.22 3.3 22.7z"/>
</g>
<g fill="None" fill-opacity="0" stroke="#BCF1F4" stroke-width=".3">
<path d="m223 220c8.07-8.22 7.14-22.17 1.78-31.78-8.77-10.13 0.76-22.46 0.22-32.22-5.49 9.15-11.65 20.59-4.92 30.92 7.62 9.56 6.17 22.19 2.92 33.08z"/>
</g>
<g fill="None" fill-opacity="0" stroke="#212E2D" stroke-width=".3">
<path d="m256 160c-4.48 1.18-7.54-1.38-11-3 1.46 3.8 9.43 7.71 11 3z"/>
</g>
<g fill="None" fill-opacity="0" stroke="#BCF1F4" stroke-width=".3">
<path d="m279 203c4.65-6.34-0.9-11.4-4.75-16.25-6.31-4.48-2.81-13.1-5.25-18.75-7.87 13.42 5.71 24 10 35z"/>
</g>
<g fill="None" fill-opacity="0" stroke="#BCF1F4" stroke-width=".3">
<path d="m226 174c-3.31 10.64 7.88 20.51 6 32 2.96 11.99-10.7 18.44-8.92 29.92 5.19 13.45 17.54-5.04 23.92-0.92 0.83-2.53 2.31-4.61 5-3 3.91-4.74 0.85-12.51 2-17 8.08 14.13-6.83 26.33-19 30 4.53 6.95 16.58 4.61 24 8 0.4-6.05 1.92-11.78 5-17-2.19-1-3.8-5.41-2-7 1.73 9.96 17.59 3.12 12.3-5.3-2.99-7.1-12.99-6.04-15.99-13.01-3.79-6.02-5.24-13.82-10.3-18.7-9.89 1.47-9.65-10.36-15.01-13.99 11.06 16.9 14.31 44.11-6 56 1.78-10.7 13.13-18.41 9.78-30.78-1.22-10.54-9.6-18.61-10.78-29.22z"/>
</g>
<g fill="None" fill-opacity="0" stroke="#BCF1F4" stroke-width=".3">
<path d="m272 209c4.96-9.14-5.04-16.49-10-23 1.33 8.37 8.67 14.92 10 23z"/>
</g>
<g fill="None" fill-opacity="0" stroke="#BCF1F4" stroke-width=".3">
<path d="m257 189c-1.28 7.44 4.67 18.58 11 23 0.1-9.2-10.19-14.07-11-23z"/>
</g>
<g fill="None" fill-opacity="0" stroke="#BCF1F4" stroke-width=".3">
<path d="m268 270c-2.78-13.02-17.79-14.55-28.33-16.67-10.21-3.41-30.79-3.08-23.67-19.33-1.33-12.94 7.79-25.61 1.92-37.92-9.52-13.35-21.78 6.04-17.92 16.92 0.17 14.35-0.65 28.93 1.08 42.92 8.04 9.49 24.59 5.72 36.25 8.75 12.6 0.14 18.98 6.73 28.67 11.33-0.86-5.31-5.4-9.12-7-14 3.82 1.71 6.26 5.2 9 8z"/>
</g>
<g fill="None" fill-opacity="0" stroke="#BCF1F4" stroke-width=".3">
<path d="m193 226c-27.21-2.36-49.21 20.67-56 45 15.57 0 32.23 5.2 45.77-4.23 16.89-7.75 8.75-26.21 10.23-40.77z"/>
</g>
<g fill="None" fill-opacity="0" stroke="#BCF1F4" stroke-width=".3">
<path d="m362 233c-22.41 1.27-47.05-2.55-68.08 1.92-6.73 16.11-15.81 31.46-20.92 48.08 21.99-2.13 45.03-0.09 66.75-3.25 8.11-15.21 16.47-30.68 22.25-46.75z"/>
</g>
<g fill="None" fill-opacity="0" stroke="#BCF1F4" stroke-width=".3">
<path d="m275 256c-4.13-0.49-6.78-4.68-11-5-0.39 6.17 5 10.43 8 15 0.97-3.38 3.43-6.26 3-10z"/>
</g>
<g fill="None" fill-opacity="0" stroke="#BCF1F4" stroke-width=".3">
<path d="m266 280c-13.95-6.59-30.07-10.64-45.92-6.92-12.66 5.96-19.92 21.11-19.08 34.92 10.01-2.95 21.53-2.98 30.77 2.23 8.52 1.91 12.05 16.33 20.21 14.75 18.34-3.89 30.07-18.62 41.02-32.98-19.96 1.99-41.19 6.13-61 4 7.75-1.99 15.18-5.22 23-7-6.07-3.45-20.6 3.08-22-7 10.69-1.28 23.86 2.59 33-2z"/>
</g>
<g fill="None" fill-opacity="0" stroke="#BCF1F4" stroke-width=".3">
<path d="m315 291c-11.63-1-20.83 8-27.23 16.77-14.35 28.67-43.49 45.72-66.52 65.48-6.39 15.62 14.72 1.87 19.67-3.33 26.12-17.66 53.56-33.44 77.83-54.17 10.53-6.46 8.34-22.84-3.75-24.75z"/>
</g>
<g fill="None" fill-opacity="0" stroke="#BCF1F4" stroke-width=".3">
<path d="m179 338c2.04-8.45 5.07-16.87 12.24-22.75 4.18-8.73-11.92-13.72-19.24-12.25-18.97-1.06-33.61 22.48-21 38 8.5-4.87 18.72-8.14 28-3z"/>
</g>
<g fill="None" fill-opacity="0" stroke="#BCF1F4" stroke-opacity=".99" stroke-width=".3">
<path d="m123 378c3.75 4.93 9.88 6.96 15 10 13.37 7.39 31.2 3.42 41-8 11.32 12.69 28.71 22.31 46.67 16.67 3.89-0.22 13.39-7.7 13.33-3.67 18.82 0.05 42.28-18.31 59-4 1.76-2.96 8.24 5.49 13.01 3.99 11.66 5.24 21.07-12.47 31.07-3.07 5.79 2.49 12.76 2.61 18.92 1.08 4.11-1.85 3.28-6.91 6-10-2.55 0.34-4.39-1.67-7-1 8.39-1.98 19.53-10.67 14.77-20.77-5.94-12.12-17.6 0.28-25.77 1.77 9.18-9.17 18.64-21.28 13.92-34.92-4.29-13.35-20.16-18.44-32.92-15.08-3.94 6.97-14.33 11.81-5.77 19.77 13.16 25.88-17.49 55.86-43.23 48.23 20.83-0.32 44.58-21.08 36.3-43.3-4.65-13.89-15.85 2.15-23.22 5.38-16.33 11.03-33.49 20.82-49.38 32.62-8.97 3.94-16.66 16.29-27.45 12.05-14.09-23.6 34.71-24.84 26.07-48.07-2.77-9.94-10.83-18.61-21.1-20.9-23.52-8.81-42.1 20.15-34.22 40.22-4.25-15.93-38.57-17.89-31 2-6.06-8.39-20.04-17.32-29.25-8.25-9.28 8.58-1.11 25.08 10.25 26.25-2.21 4.09-10.76 1.7-15 1z"/>
</g>
<g fill="None" fill-opacity="0" stroke="#BCF1F4" stroke-width=".3">
<path d="m269 325c-6.18 2.99-11.53 7.82-18 10-0.09 2.82 1.67 5.06 1 8 6.79-4.37 13.33-11 17-18z"/>
</g>
<g fill="None" fill-opacity="0" stroke="#212E2D" stroke-opacity=".98" stroke-width=".3">
<path d="m138 388c11.32 12.11 31.57 9.2 42-3 11.69 20.55 42.21 23.97 59 8 0.06-4.03-9.44 3.45-13.33 3.67-17.96 5.64-35.35-3.98-46.67-16.67-9.8 11.42-27.63 15.39-41 8z"/>
</g>
<g fill="None" fill-opacity="0" stroke="#212E2D" stroke-opacity=".98" stroke-width=".3">
<path d="m298 389c8.73 11.04 27.16 12.22 36 1 7.33 4.88 19.96 8.29 27 1-6.16 1.53-13.13 1.41-18.92-1.08-10-9.4-19.41 8.31-31.07 3.07-4.77 1.5-11.25-6.95-13.01-3.99z"/>
</g>
<g fill="#212E2D" fill-opacity="0" stroke="None">
<path d="m0 500h500v-500h-500v500m289-337c-2.58 2.6-3.87 7.03-8 8 0.74 6.54 7.77 9.88 10.92 15.08 3.81 4.48-1.48 18.83-4.92 15.92-0.87 2.48-3.1 3.73-6 4-3.92 1.97-4.77 6.32-6 10 7.72 6.01 6.07 18.85-3.08 22.92-11.2 5.58 9.54 19.22 9.85 5.85 3.23-8.02 6.42-20.84 18.23-17.77h36c10.64 1.68 25.04-3.43 33.3 2.7-2.14 17.15-15.42 32.62-21.22 49.38-3.65 12.47-18.79 4.76-26.08 9.92 5.03 1.51 8.02 7.23 9 12 22.01-4.52 45.54 12.52 42 36-7.53 11.99 14.11 11.34 11 24 3.53 9.86-6.79 20.86-17 20-2.72 3.09-1.89 8.15-6 10-7.04 7.29-19.67 3.88-27-1-8.84 11.22-27.27 10.04-36-1-16.72-14.31-40.18 4.05-59 4-16.79 15.97-47.31 12.55-59-8-10.43 12.2-30.68 15.11-42 3-5.12-3.04-11.25-5.07-15-10-18.18-12.41-5.72-43.69 16-40-13.59-32.45 32.43-59.01 57-38 0.91-12.8 11.13-22.13 16-33-16.21-6.15-24.22 12.06-39.07 13.93-16.85 3.39-33.96-3.71-50.93 0.07 9.85-23.39 20.83-51.91 47.69-61.3 6.68-5.07 24.44-1.54 23.53-11.92-37.82-1.28-71.78-27.99-81.2-64.8-7.46-16.46-15.53-32.76-27.02-46.98 47.36 2.34 95.61 23.92 120 67 2.01-9.08 10.46-16.73 9-27 3.02-20.14 27.02-30.64 45.22-23.22 8.29 7.03 14.91 1.17 23.01-2.55 7.93-3.89 15.2-9.05 21.77-15.23-6.55 21.45 2.5 53.47-15 68z"/>
</g>
<g fill="#212E2D" stroke="None">
<path d="m123 378c4.24 0.7 12.79 3.09 15-1-11.36-1.17-19.53-17.67-10.25-26.25 9.21-9.07 23.19-0.14 29.25 8.25-7.57-19.89 26.75-17.93 31-2-7.88-20.07 10.7-49.03 34.22-40.22 10.27 2.29 18.33 10.96 21.1 20.9 8.64 23.23-40.16 24.47-26.07 48.07 10.79 4.24 18.48-8.11 27.45-12.05 15.89-11.8 33.05-21.59 49.38-32.62 7.37-3.23 18.57-19.27 23.22-5.38 8.28 22.22-15.47 42.98-36.3 43.3 25.74 7.63 56.39-22.35 43.23-48.23-8.56-7.96 1.83-12.8 5.77-19.77 12.76-3.36 28.63 1.73 32.92 15.08 4.72 13.64-4.74 25.75-13.92 34.92 8.17-1.49 19.83-13.89 25.77-1.77 4.76 10.1-6.38 18.79-14.77 20.77 2.61-0.67 4.45 1.34 7 1 10.21 0.86 20.53-10.14 17-20 3.11-12.66-18.53-12.01-11-24 3.54-23.48-19.99-40.52-42-36-0.98-4.77-3.97-10.49-9-12 7.29-5.16 22.43 2.55 26.08-9.92 5.8-16.76 19.08-32.23 21.22-49.38-8.26-6.13-22.66-1.02-33.3-2.7h-36c-11.81-3.07-15 9.75-18.23 17.77-0.31 13.37-21.05-0.27-9.85-5.85 9.15-4.07 10.8-16.91 3.08-22.92 1.23-3.68 2.08-8.03 6-10 6.37-7.48 3.72-16.63-3.3-22.7-5.95-8.05-3.56-19.24-1.7-28.3 2.69 7.92-1.5 18.83 5.25 25.75 7.65 4.91 9.52 13.44 5.75 21.25 3.44 2.91 8.73-11.44 4.92-15.92-3.15-5.2-10.18-8.54-10.92-15.08-0.88-12.89 8.78-26.17-0.25-37.75-13.87-9.27 7.63-15.73 14.25-21.25-2.77 16.8-2.14 34.46-6 51 17.5-14.53 8.45-46.55 15-68-6.57 6.18-13.84 11.34-21.77 15.23-8.1 3.72-14.72 9.58-23.01 2.55-18.2-7.42-42.2 3.08-45.22 23.22 1.46 10.27-6.99 17.92-9 27-24.39-43.08-72.64-64.66-120-67 11.49 14.22 19.56 30.52 27.02 46.98 9.42 36.81 43.38 63.52 81.2 64.8 0.91 10.38-16.85 6.85-23.53 11.92-26.86 9.39-37.84 37.91-47.69 61.3 16.97-3.78 34.08 3.32 50.93-0.07 14.85-1.87 22.86-20.08 39.07-13.93-4.87 10.87-15.09 20.2-16 33-24.57-21.01-70.59 5.55-57 38-21.72-3.69-34.18 27.59-16 40z"/>
</g>
<g fill="#BCF1F4" stroke="None">
<path d="m205 188c-12.88-44.07-56.52-73.38-100-80 17.29 26.39 21.41 63.8 52.31 79.69 14.75 5.45 35.75 17.24 47.69 0.31z"/>
</g>
<g fill="#BCF1F4" fill-opacity=".98" stroke="None">
<path d="m281 171c4.13-0.97 5.42-5.4 8-8 3.86-16.54 3.23-34.2 6-51-6.62 5.52-28.12 11.98-14.25 21.25 9.03 11.58-0.63 24.86 0.25 37.75z"/>
</g>
<g fill="#BCF1F4" stroke="None">
<path d="m279 142c-1.47-8.43-12.39-11.54-15.92-20.08-12.75-14.42-43.46-5.49-40.08 15.08 6.78-2.41 13.04-6.21 20-8-3.72 4.57-10.35 6.27-14 11 9.21-1.85 17.05-7.53 26-10-6.96 7.3-16.63 11.55-26.33 13.67-12.95-0.45-15.24 16.18-12.67 25.33 0.51-13.01 10.49-21.69 23.93-18.07 10.44-1.94 18.48-9.03 27.07-14.93-2.08 7.05-9.53 10.66-14.92 15.08-6.26 1.98-14.98 10.2-20.08 3.92-4.13 12.38 8.2 31.04 22 27-6.09-3.81 9.61-4.88 0-7 12.52 1.19 5.33-12.07 10.75-16.25 5.04-4.36 11.43-11.25 6.25-17.75 2.81-0.28 5.49 0.2 8 1z"/>
</g>
<g fill="#212E2D" stroke="None">
<path d="m164 147c-8.58-6.87-22.83-14.53-34-14 12.09 2.49 22.95 8.48 34 14z"/>
</g>
<g fill="#BCF1F4" fill-opacity=".98" stroke="None">
<path d="m281 206c2.9-0.27 5.13-1.52 6-4 3.77-7.81 1.9-16.34-5.75-21.25-6.75-6.92-2.56-17.83-5.25-25.75-1.86 9.06-4.25 20.25 1.7 28.3 7.02 6.07 9.67 15.22 3.3 22.7z"/>
</g>
<g fill="#BCF1F4" stroke="None">
<path d="m223 220c8.07-8.22 7.14-22.17 1.78-31.78-8.77-10.13 0.76-22.46 0.22-32.22-5.49 9.15-11.65 20.59-4.92 30.92 7.62 9.56 6.17 22.19 2.92 33.08z"/>
</g>
<g fill="#212E2D" stroke="None">
<path d="m256 160c-4.48 1.18-7.54-1.38-11-3 1.46 3.8 9.43 7.71 11 3z"/>
</g>
<g fill="#BCF1F4" stroke="None">
<path d="m279 203c4.65-6.34-0.9-11.4-4.75-16.25-6.31-4.48-2.81-13.1-5.25-18.75-7.87 13.42 5.71 24 10 35z"/>
</g>
<g fill="#BCF1F4" stroke="None">
<path d="m226 174c-3.31 10.64 7.88 20.51 6 32 2.96 11.99-10.7 18.44-8.92 29.92 5.19 13.45 17.54-5.04 23.92-0.92 0.83-2.53 2.31-4.61 5-3 3.91-4.74 0.85-12.51 2-17 8.08 14.13-6.83 26.33-19 30 4.53 6.95 16.58 4.61 24 8 0.4-6.05 1.92-11.78 5-17-2.19-1-3.8-5.41-2-7 1.73 9.96 17.59 3.12 12.3-5.3-2.99-7.1-12.99-6.04-15.99-13.01-3.79-6.02-5.24-13.82-10.3-18.7-9.89 1.47-9.65-10.36-15.01-13.99 11.06 16.9 14.31 44.11-6 56 1.78-10.7 13.13-18.41 9.78-30.78-1.22-10.54-9.6-18.61-10.78-29.22z"/>
</g>
<g fill="#BCF1F4" stroke="None">
<path d="m272 209c4.96-9.14-5.04-16.49-10-23 1.33 8.37 8.67 14.92 10 23z"/>
</g>
<g fill="#BCF1F4" stroke="None">
<path d="m257 189c-1.28 7.44 4.67 18.58 11 23 0.1-9.2-10.19-14.07-11-23z"/>
</g>
<g fill="#BCF1F4" stroke="None">
<path d="m268 270c-2.78-13.02-17.79-14.55-28.33-16.67-10.21-3.41-30.79-3.08-23.67-19.33-1.33-12.94 7.79-25.61 1.92-37.92-9.52-13.35-21.78 6.04-17.92 16.92 0.17 14.35-0.65 28.93 1.08 42.92 8.04 9.49 24.59 5.72 36.25 8.75 12.6 0.14 18.98 6.73 28.67 11.33-0.86-5.31-5.4-9.12-7-14 3.82 1.71 6.26 5.2 9 8z"/>
</g>
<g fill="#BCF1F4" stroke="None">
<path d="m193 226c-27.21-2.36-49.21 20.67-56 45 15.57 0 32.23 5.2 45.77-4.23 16.89-7.75 8.75-26.21 10.23-40.77z"/>
</g>
<g fill="#BCF1F4" stroke="None">
<path d="m362 233c-22.41 1.27-47.05-2.55-68.08 1.92-6.73 16.11-15.81 31.46-20.92 48.08 21.99-2.13 45.03-0.09 66.75-3.25 8.11-15.21 16.47-30.68 22.25-46.75z"/>
</g>
<g fill="#BCF1F4" stroke="None">
<path d="m275 256c-4.13-0.49-6.78-4.68-11-5-0.39 6.17 5 10.43 8 15 0.97-3.38 3.43-6.26 3-10z"/>
</g>
<g fill="#BCF1F4" stroke="None">
<path d="m266 280c-13.95-6.59-30.07-10.64-45.92-6.92-12.66 5.96-19.92 21.11-19.08 34.92 10.01-2.95 21.53-2.98 30.77 2.23 8.52 1.91 12.05 16.33 20.21 14.75 18.34-3.89 30.07-18.62 41.02-32.98-19.96 1.99-41.19 6.13-61 4 7.75-1.99 15.18-5.22 23-7-6.07-3.45-20.6 3.08-22-7 10.69-1.28 23.86 2.59 33-2z"/>
</g>
<g fill="#BCF1F4" stroke="None">
<path d="m315 291c-11.63-1-20.83 8-27.23 16.77-14.35 28.67-43.49 45.72-66.52 65.48-6.39 15.62 14.72 1.87 19.67-3.33 26.12-17.66 53.56-33.44 77.83-54.17 10.53-6.46 8.34-22.84-3.75-24.75z"/>
</g>
<g fill="#BCF1F4" stroke="None">
<path d="m179 338c2.04-8.45 5.07-16.87 12.24-22.75 4.18-8.73-11.92-13.72-19.24-12.25-18.97-1.06-33.61 22.48-21 38 8.5-4.87 18.72-8.14 28-3z"/>
</g>
<g fill="#BCF1F4" fill-opacity=".99" stroke="None">
<path d="m123 378c3.75 4.93 9.88 6.96 15 10 13.37 7.39 31.2 3.42 41-8 11.32 12.69 28.71 22.31 46.67 16.67 3.89-0.22 13.39-7.7 13.33-3.67 18.82 0.05 42.28-18.31 59-4 1.76-2.96 8.24 5.49 13.01 3.99 11.66 5.24 21.07-12.47 31.07-3.07 5.79 2.49 12.76 2.61 18.92 1.08 4.11-1.85 3.28-6.91 6-10-2.55 0.34-4.39-1.67-7-1 8.39-1.98 19.53-10.67 14.77-20.77-5.94-12.12-17.6 0.28-25.77 1.77 9.18-9.17 18.64-21.28 13.92-34.92-4.29-13.35-20.16-18.44-32.92-15.08-3.94 6.97-14.33 11.81-5.77 19.77 13.16 25.88-17.49 55.86-43.23 48.23 20.83-0.32 44.58-21.08 36.3-43.3-4.65-13.89-15.85 2.15-23.22 5.38-16.33 11.03-33.49 20.82-49.38 32.62-8.97 3.94-16.66 16.29-27.45 12.05-14.09-23.6 34.71-24.84 26.07-48.07-2.77-9.94-10.83-18.61-21.1-20.9-23.52-8.81-42.1 20.15-34.22 40.22-4.25-15.93-38.57-17.89-31 2-6.06-8.39-20.04-17.32-29.25-8.25-9.28 8.58-1.11 25.08 10.25 26.25-2.21 4.09-10.76 1.7-15 1z"/>
</g>
<g fill="#BCF1F4" stroke="None">
<path d="m269 325c-6.18 2.99-11.53 7.82-18 10-0.09 2.82 1.67 5.06 1 8 6.79-4.37 13.33-11 17-18z"/>
</g>
<g fill="#212E2D" fill-opacity=".98" stroke="None">
<path d="m138 388c11.32 12.11 31.57 9.2 42-3 11.69 20.55 42.21 23.97 59 8 0.06-4.03-9.44 3.45-13.33 3.67-17.96 5.64-35.35-3.98-46.67-16.67-9.8 11.42-27.63 15.39-41 8z"/>
</g>
<g fill="#212E2D" fill-opacity=".98" stroke="None">
<path d="m298 389c8.73 11.04 27.16 12.22 36 1 7.33 4.88 19.96 8.29 27 1-6.16 1.53-13.13 1.41-18.92-1.08-10-9.4-19.41 8.31-31.07 3.07-4.77 1.5-11.25-6.95-13.01-3.99z"/>
</g>
</svg>
